<svg xmlns="http://www.w3.org/2000/svg" width="235" height="44" viewBox="0 0 235 44">
  <metadata><?xpacket begin="﻿" id="W5M0MpCehiHzreSzNTczkc9d"?>
<x:xmpmeta xmlns:x="adobe:ns:meta/" x:xmptk="Adobe XMP Core 5.6-c138 79.159824, 2016/09/14-01:09:01        ">
   <rdf:RDF xmlns:rdf="http://www.w3.org/1999/02/22-rdf-syntax-ns#">
      <rdf:Description rdf:about=""/>
   </rdf:RDF>
</x:xmpmeta>
                                                                                                    
                                                                                                    
                                                                                                    
                                                                                                    
                                                                                                    
                                                                                                    
                                                                                                    
                                                                                                    
                                                                                                    
                                                                                                    
                                                                                                    
                                                                                                    
                                                                                                    
                                                                                                    
                                                                                                    
                                                                                                    
                                                                                                    
                                                                                                    
                                                                                                    
                                                                                                    
                           
<?xpacket end="w"?></metadata>
<defs>
    <style>
      .cls-1 {
        fill: #f18713;
        fill-rule: evenodd;
      }
    </style>
  </defs>
  <path id="logo" class="cls-1" d="M312.167,374.7c-3.933,0-7.013-.889-9.572-3.323l2.275-2.247a9.6,9.6,0,0,0,7.25,2.668c3.839,0,6.208-1.357,6.208-4.073,0-2.012-1.184-3.135-3.886-3.369l-3.838-.328c-4.549-.375-6.967-2.388-6.967-6.179,0-4.213,3.6-6.741,8.578-6.741a13.3,13.3,0,0,1,8.388,2.481l-2.227,2.2a10.042,10.042,0,0,0-6.209-1.825c-3.411,0-5.212,1.451-5.212,3.791,0,1.966,1.137,3.137,4.075,3.371l3.744,0.327c4.076,0.375,6.872,1.919,6.872,6.226C321.646,372.128,317.807,374.7,312.167,374.7Zm43.5-.281V360.238c0-4.072-2.228-6.132-5.734-6.132-3.412,0-5.829,2.107-5.829,5.758v14.557H340.7V360.238c0-4.072-2.228-6.132-5.734-6.132s-5.829,2.107-5.829,6.132v14.183h-3.412v-23.03h3.412v2.528a8.555,8.555,0,0,1,6.587-2.809,7.709,7.709,0,0,1,7.156,3.839,8.961,8.961,0,0,1,7.677-3.839,8.02,8.02,0,0,1,8.53,8.567v14.744h-3.412Zm22.321,0v-2.2c-1.9,1.873-3.6,2.481-6.729,2.481-3.223,0-5.118-.608-6.588-2.106a6.591,6.591,0,0,1-1.753-4.681c0-4.026,2.843-6.647,8.056-6.647h7.014v-2.2c0-3.37-1.706-5.055-5.971-5.055-2.986,0-4.5.7-5.876,2.621l-2.323-2.106c2.086-2.669,4.455-3.418,8.246-3.418,6.256,0,9.336,2.669,9.336,7.677v15.634h-3.412Zm0-10.625h-6.54c-3.507,0-5.213,1.4-5.213,4.072s1.659,3.932,5.355,3.932c1.991,0,3.744-.14,5.213-1.544,0.806-.75,1.185-2.06,1.185-3.98V363.8Zm22.131-8a4.909,4.909,0,0,0-4.028-1.685c-3.413,0-5.592,2.669-5.592,6.179v14.136h-3.412v-23.03H390.5V354.2a7.867,7.867,0,0,1,6.539-3.09,7.227,7.227,0,0,1,5.592,2.154Zm12.424,18.63c-3.98,0-5.971-2.761-5.971-6.178V354.106h-2.938v-2.574h2.938v-7.209h3.412v7.209h4.976v2.574h-4.976v14.043c0,2.107,1,3.37,3.175,3.37h1.8v2.9h-2.417ZM429.853,341v2.9h-1.848c-2.18,0-3.128,1.264-3.128,3.37v4.26h4.976v2.574h-4.976v20.315h-3.412V354.106H418.48v-2.574h2.985v-4.353c0-3.417,1.943-6.179,5.924-6.179h2.464Zm16.685,14.791a4.909,4.909,0,0,0-4.029-1.685c-3.412,0-5.592,2.669-5.592,6.179v14.136h-3.412v-23.03h3.412V354.2a7.87,7.87,0,0,1,6.54-3.09,7.229,7.229,0,0,1,5.592,2.154Zm18.724,16.29a9.827,9.827,0,0,1-13.363,0c-2.37-2.387-2.844-5.617-2.844-9.174s0.474-6.788,2.844-9.175a9.824,9.824,0,0,1,13.363,0c2.37,2.387,2.843,5.617,2.843,9.175S467.632,369.694,465.262,372.081Zm-2.417-16.29a6.017,6.017,0,0,0-4.265-1.685,5.906,5.906,0,0,0-4.217,1.685c-1.706,1.686-1.9,4.541-1.9,7.116s0.19,5.429,1.9,7.114a5.9,5.9,0,0,0,4.217,1.685,6.012,6.012,0,0,0,4.265-1.685c1.706-1.685,1.849-4.54,1.849-7.114S464.551,357.477,462.845,355.791ZM480.285,385a10.356,10.356,0,0,1-7.914-3.09l2.227-2.152a7.227,7.227,0,0,0,5.592,2.293c4.5,0,6.4-3.136,6.4-7.068v-3.6a7.549,7.549,0,0,1-6.54,3,8.075,8.075,0,0,1-5.639-2.059c-2.323-2.294-2.844-5.851-2.844-9.6s0.521-7.3,2.844-9.6a8.179,8.179,0,0,1,5.686-2.013,7.385,7.385,0,0,1,6.54,3v-2.715H490v23.733C490,380.834,486.4,385,480.285,385Zm0.521-30.894c-5.07,0-5.828,4.307-5.828,8.613s0.758,8.613,5.828,8.613,5.782-4.306,5.782-8.613S485.877,354.106,480.806,354.106ZM277.31,341a22,22,0,1,0,22.31,22A22.157,22.157,0,0,0,277.31,341Zm0,41.8A19.8,19.8,0,1,1,297.389,363,19.941,19.941,0,0,1,277.31,382.8Zm0-37.4A17.559,17.559,0,0,0,269,378.576a10.5,10.5,0,0,1-2.473-6.776,10.785,10.785,0,0,1,21.567,0,10.5,10.5,0,0,1-2.474,6.776A17.558,17.558,0,0,0,277.31,345.4Z" transform="translate(-255 -341)"/>
</svg>
