<svg id="Badges" xmlns="http://www.w3.org/2000/svg" viewBox="0 0 128 128"><defs><style>.cls-1{fill:#fff;}</style></defs><title>apple-app</title><rect y="44" width="128" height="40" rx="4" ry="4"/><path class="cls-1" d="M27,63.8A5.6,5.6,0,0,1,29.7,59a5.8,5.8,0,0,0-4.5-2.5c-1.9-.2-3.8,1.1-4.7,1.1s-2.5-1.1-4.1-1.1a6,6,0,0,0-5.1,3.1c-2.2,3.8-.6,9.4,1.5,12.5,1.1,1.5,2.3,3.2,3.9,3.1s2.2-1,4.1-1,2.4,1,4.1,1,2.8-1.5,3.8-3a12.5,12.5,0,0,0,1.7-3.5A5.4,5.4,0,0,1,27,63.8Z"/><path class="cls-1" d="M23.9,54.6a5.5,5.5,0,0,0,1.3-4,5.6,5.6,0,0,0-3.6,1.9,5.3,5.3,0,0,0-1.3,3.8A4.7,4.7,0,0,0,23.9,54.6Z"/><path class="cls-1" d="M49.8,75.1H47.6l-1.2-3.8H42.2L41,75.1H38.9L43,62.2h2.6ZM46,69.7l-1.1-3.4-.7-2.4h0l-.6,2.4-1.1,3.4Z"/><path class="cls-1" d="M60.5,70.4a5.3,5.3,0,0,1-1.3,3.8,3.8,3.8,0,0,1-2.9,1.2A2.9,2.9,0,0,1,53.7,74h0v4.9H51.6v-10q0-1.5-.1-3.1h1.8v1.5h0a3.7,3.7,0,0,1,5.9-.4A5.1,5.1,0,0,1,60.5,70.4Zm-2.1.1a3.8,3.8,0,0,0-.6-2.2,2.1,2.1,0,0,0-1.8-.9,2.1,2.1,0,0,0-1.4.5,2.4,2.4,0,0,0-.8,1.3,2.7,2.7,0,0,0-.1.6v1.6a2.5,2.5,0,0,0,.6,1.7,2.1,2.1,0,0,0,1.6.7,2.1,2.1,0,0,0,1.8-.9A4,4,0,0,0,58.4,70.4Z"/><path class="cls-1" d="M71.2,70.4a5.3,5.3,0,0,1-1.3,3.8A3.7,3.7,0,0,1,67,75.3,2.9,2.9,0,0,1,64.4,74h0v4.9H62.3v-10q0-1.5-.1-3.1H64v1.5h0a3.7,3.7,0,0,1,5.9-.4A5.1,5.1,0,0,1,71.2,70.4Zm-2.1.1a3.8,3.8,0,0,0-.6-2.2,2.1,2.1,0,0,0-1.8-.9,2.1,2.1,0,0,0-1.4.5,2.4,2.4,0,0,0-.8,1.3,2.7,2.7,0,0,0-.1.6v1.6A2.5,2.5,0,0,0,65,73a2.1,2.1,0,0,0,1.6.7,2.1,2.1,0,0,0,1.8-.9A4,4,0,0,0,69.1,70.4Z"/><path class="cls-1" d="M83.1,71.5A3.4,3.4,0,0,1,82,74.2a5.1,5.1,0,0,1-3.5,1.1,6.2,6.2,0,0,1-3.3-.8l.5-1.7a5.7,5.7,0,0,0,3,.8,2.8,2.8,0,0,0,1.8-.5,1.7,1.7,0,0,0,.6-1.4,1.8,1.8,0,0,0-.5-1.3,5,5,0,0,0-1.8-1q-3.4-1.3-3.4-3.7A3.3,3.3,0,0,1,76.6,63a4.7,4.7,0,0,1,3.2-1,6.3,6.3,0,0,1,2.9.6l-.5,1.7a5.1,5.1,0,0,0-2.5-.6,2.5,2.5,0,0,0-1.7.5,1.5,1.5,0,0,0-.5,1.2,1.6,1.6,0,0,0,.6,1.3,6.7,6.7,0,0,0,1.9,1,6.4,6.4,0,0,1,2.5,1.6A3.3,3.3,0,0,1,83.1,71.5Z"/><path class="cls-1" d="M90,67.4H87.7v4.5q0,1.7,1.2,1.7h.9v1.6l-1.6.2a2.5,2.5,0,0,1-1.9-.7,3.7,3.7,0,0,1-.7-2.5V67.4H84.3V65.8h1.4V64.1l2-.6v2.3H90Z"/><path class="cls-1" d="M100.3,70.4A5.1,5.1,0,0,1,99,73.9a4.4,4.4,0,0,1-3.4,1.4A4.2,4.2,0,0,1,92.4,74a4.9,4.9,0,0,1-1.2-3.4A5.1,5.1,0,0,1,92.4,67a4.3,4.3,0,0,1,3.4-1.4A4.2,4.2,0,0,1,99.1,67,4.9,4.9,0,0,1,100.3,70.4Zm-2.1.1a4.2,4.2,0,0,0-.6-2.2,2,2,0,0,0-1.9-1.1,2.1,2.1,0,0,0-1.9,1.1,4.3,4.3,0,0,0-.6,2.2,4.2,4.2,0,0,0,.6,2.2,2.1,2.1,0,0,0,3.7,0A4.2,4.2,0,0,0,98.1,70.5Z"/><path class="cls-1" d="M107,67.6h-.7a2,2,0,0,0-1.7.8,3.1,3.1,0,0,0-.5,1.8v4.9h-2.1V68.7q0-1.6-.1-2.9h1.8v1.8h.1a3.2,3.2,0,0,1,1-1.5,2.5,2.5,0,0,1,1.5-.5h.5Z"/><path class="cls-1" d="M116.2,70a4.9,4.9,0,0,1-.1.9h-6.2a2.7,2.7,0,0,0,.9,2.1,3.1,3.1,0,0,0,2,.7,6.9,6.9,0,0,0,2.5-.4l.3,1.4a7.8,7.8,0,0,1-3.1.6,4.5,4.5,0,0,1-3.4-1.3,4.7,4.7,0,0,1-1.2-3.4,5.3,5.3,0,0,1,1.1-3.5,4,4,0,0,1,3.3-1.5,3.5,3.5,0,0,1,3,1.5A5,5,0,0,1,116.2,70Zm-2-.5a2.8,2.8,0,0,0-.4-1.6,1.8,1.8,0,0,0-1.6-.9,2,2,0,0,0-1.6.8,3.1,3.1,0,0,0-.6,1.6Z"/><polygon class="cls-1" points="43.7 57.6 40.1 57.6 40.1 51.3 41.1 51.3 41.1 56.7 43.7 56.7 43.7 57.6"/><path class="cls-1" d="M48.4,57.6h-.9v-.5h0a1.5,1.5,0,0,1-1.3.6,1.4,1.4,0,0,1-1-.4,1.3,1.3,0,0,1-.4-.9,1.4,1.4,0,0,1,.7-1.3,3.6,3.6,0,0,1,1.9-.4h0q0-.9-.9-.9a2.1,2.1,0,0,0-1.2.3l-.2-.7a2.9,2.9,0,0,1,1.5-.4q1.8,0,1.8,1.9v1.7a7.2,7.2,0,0,0,.1,1.1m-1-1.6v-.7q-1.7,0-1.7.9a.7.7,0,0,0,.2.5l.5.2.6-.2a.9.9,0,0,0,.3-.5V56"/><path class="cls-1" d="M54.1,57.6h-.9v-.7h0a1.5,1.5,0,0,1-1.4.8,1.7,1.7,0,0,1-1.4-.6,2.5,2.5,0,0,1-.5-1.7,2.6,2.6,0,0,1,.6-1.8,1.8,1.8,0,0,1,1.4-.6,1.4,1.4,0,0,1,1.3.6h0V51h1v5.4q0,.7,0,1.2m-1-1.9v-.8a1.4,1.4,0,0,0,0-.3,1.1,1.1,0,0,0-.4-.6l-.7-.2a1,1,0,0,0-.9.4,1.9,1.9,0,0,0-.3,1.1,1.8,1.8,0,0,0,.3,1.1,1,1,0,0,0,.9.4,1,1,0,0,0,.8-.4,1.2,1.2,0,0,0,.3-.8"/><path class="cls-1" d="M59.6,55.1a2.4,2.4,0,0,1,0,.5h-3a1.3,1.3,0,0,0,.4,1,1.5,1.5,0,0,0,1,.3l1.2-.2.2.7a3.8,3.8,0,0,1-1.5.3,2.2,2.2,0,0,1-1.6-.6,2.3,2.3,0,0,1-.6-1.7,2.6,2.6,0,0,1,.6-1.7,1.9,1.9,0,0,1,1.6-.7,1.7,1.7,0,0,1,1.5.7,2.4,2.4,0,0,1,.4,1.4m-1-.3a1.4,1.4,0,0,0-.2-.8.9.9,0,0,0-.8-.4,1,1,0,0,0-.8.4,1.5,1.5,0,0,0-.3.8Z"/><path class="cls-1" d="M65,57.6H64V55q0-1.2-.9-1.2a.9.9,0,0,0-.7.3,1.2,1.2,0,0,0-.3.8v2.7H61V54.4q0-.6,0-1.3h.9v.7h0l.5-.5.9-.3a1.4,1.4,0,0,1,1.1.4,2,2,0,0,1,.5,1.5Z"/><path class="cls-1" d="M70.6,51.7a.6.6,0,0,1-.2.4l-.5.2-.4-.2a.6.6,0,0,1-.2-.4.6.6,0,0,1,.2-.4l.4-.2.4.2a.6.6,0,0,1,.2.4m-.1,5.9h-1V53.1h1Z"/><path class="cls-1" d="M78.7,57.6h-1V55.1q0-1.3-.9-1.3a.8.8,0,0,0-.7.3,1.1,1.1,0,0,0-.2.7v2.7H75V54.9a1.4,1.4,0,0,0-.2-.8.7.7,0,0,0-.6-.3.8.8,0,0,0-.7.3,1.2,1.2,0,0,0-.3.8v2.7h-1V54.4c0-.4,0-.8,0-1.3H73v.7h0a1.5,1.5,0,0,1,1.4-.8,1.2,1.2,0,0,1,1.2.8h0l.5-.6a1.6,1.6,0,0,1,.9-.3,1.3,1.3,0,0,1,1,.4,2.1,2.1,0,0,1,.5,1.5Z"/></svg>