<svg id="Badges" xmlns="http://www.w3.org/2000/svg" xmlns:xlink="http://www.w3.org/1999/xlink" viewBox="0 0 128 128"><defs><style>.cls-1,.cls-2,.cls-3,.cls-4,.cls-5{fill-rule:evenodd;}.cls-1{fill:url(#GradientFill_1);}.cls-2{fill:url(#GradientFill_2);}.cls-3{fill:url(#GradientFill_3);}.cls-4{fill:url(#GradientFill_4);}.cls-5,.cls-6{fill:#fff;}</style><linearGradient id="GradientFill_1" x1="16.27" y1="50.57" x2="21.87" y2="73.56" gradientUnits="userSpaceOnUse"><stop offset="0" stop-color="#006884"/><stop offset="1" stop-color="#8ad1d0"/></linearGradient><linearGradient id="GradientFill_2" x1="9.44" y1="53.84" x2="24.7" y2="62.09" gradientUnits="userSpaceOnUse"><stop offset="0" stop-color="#24bbb6"/><stop offset="1" stop-color="#dbe692"/></linearGradient><linearGradient id="GradientFill_3" x1="26.99" y1="67.62" x2="26.99" y2="59.67" gradientUnits="userSpaceOnUse"><stop offset="0" stop-color="#fcc072"/><stop offset="1" stop-color="#f58a5b"/></linearGradient><linearGradient id="GradientFill_4" x1="12.39" y1="77.27" x2="24.45" y2="65" gradientUnits="userSpaceOnUse"><stop offset="0" stop-color="#712b8f"/><stop offset="1" stop-color="#ea1d27"/></linearGradient></defs><title>google-app</title><rect y="44" width="128" height="40" rx="4" ry="4"/><path class="cls-1" d="M9.8,63.6V53.1a1.1,1.1,0,0,1,1-1.1,1.8,1.8,0,0,1,1,.3L31.1,62.8a.9.9,0,0,1,0,1.6L11.8,75a1.8,1.8,0,0,1-1,.3,1.1,1.1,0,0,1-1-1.1Z"/><path class="cls-2" d="M22.3,63.7,10.6,52h.2a1.8,1.8,0,0,1,1,.3L26,60Z"/><path class="cls-3" d="M25.9,67.2l-3.6-3.6L26,60l5.1,2.8a.9.9,0,0,1,0,1.6Z"/><path class="cls-4" d="M10.7,75.2h0L22.3,63.7l3.6,3.6L11.8,75a1.8,1.8,0,0,1-1,.3Z"/><path class="cls-5" d="M71.1,77.9A5.6,5.6,0,0,1,70,76.3l1.6-.7a3.4,3.4,0,0,0,.5.8,2.2,2.2,0,0,0,1.6.8,2.2,2.2,0,0,0,1.7-.8,2.8,2.8,0,0,0,.5-1.7v-.6c-1.2,1.5-3.7,1.3-5.1-.3a4.4,4.4,0,0,1,0-5.9c1.5-1.5,3.7-1.7,5-.3h0v-.7h1.7v7.6a3.8,3.8,0,0,1-3.9,4.3,3.9,3.9,0,0,1-2.6-1Zm41.9.4h0l1.7-4-3-6.9h1.7l2.1,4.9,2.1-4.9h1.7l-4.6,10.9Zm-8.1-3.8h0a2.7,2.7,0,0,1-.7-1.9,2.3,2.3,0,0,1,.6-1.6,3.8,3.8,0,0,1,2.8-1,3.6,3.6,0,0,1,1.8.4,1.6,1.6,0,0,0-1.8-1.7,1.7,1.7,0,0,0-1.7,1.1l-1.5-.6a3.1,3.1,0,0,1,3.1-2,3.3,3.3,0,0,1,3.4,3.7V75h-1.7v-.7a2.8,2.8,0,0,1-.9.7,3.2,3.2,0,0,1-1.4.3,3.2,3.2,0,0,1-2.1-.8ZM51.6,70.9h0a4.2,4.2,0,1,1,4.2,4.2,4.2,4.2,0,0,1-4.2-4.2Zm9,0h0a4.2,4.2,0,1,1,4.2,4.2,4.2,4.2,0,0,1-4.2-4.2ZM40.3,73.1h0a6.5,6.5,0,0,1,.1-9.2A6.4,6.4,0,0,1,45,62a6.5,6.5,0,0,1,4.4,1.8l-1.2,1.3a4.5,4.5,0,0,0-6.4.1,4.8,4.8,0,0,0,0,6.7,4.6,4.6,0,0,0,6.6.1,3.9,3.9,0,0,0,.9-2.2H45V67.9h5.9a7.3,7.3,0,0,1,.1,1.4,6,6,0,0,1-1.6,4A5.9,5.9,0,0,1,45.1,75a6.8,6.8,0,0,1-4.7-2Zm42.2.7h0a4.5,4.5,0,0,1,0-6,3.7,3.7,0,0,1,5.4,0,6.4,6.4,0,0,1,1.1,1.9l-5.5,2.3a2.2,2.2,0,0,0,2,1.3,2.3,2.3,0,0,0,2.1-1.2l1.5,1h0l-.5.6a4.2,4.2,0,0,1-5.9,0ZM93,75h0V63.9h3.6a3.5,3.5,0,0,1,3.8,3.3,3.4,3.4,0,0,1-3.4,3.3H94.7V75Zm8.4,0h0V63.9h1.7V75Zm-22.6-.2h0V62.4h1.8V74.8Zm30.5-3.1h0a3,3,0,0,0-1.6-.4c-1.2,0-1.9.6-1.9,1.3a1.2,1.2,0,0,0,1.4,1.1,2.1,2.1,0,0,0,2.1-2Zm-51.3-.9h0a2.3,2.3,0,1,0-2.3,2.5,2.4,2.4,0,0,0,2.3-2.5Zm9,0h0a2.3,2.3,0,1,0-2.3,2.5,2.4,2.4,0,0,0,2.3-2.5Zm8.8.8h0v-.3h0a2.7,2.7,0,0,0,0-.9h0V70a2.3,2.3,0,0,0-2.1-1.7,2.5,2.5,0,0,0,0,5.1A2.3,2.3,0,0,0,76,71.6Zm7.3-.9h0L87,69.1a1.7,1.7,0,0,0-1.5-.9,2.3,2.3,0,0,0-2.2,2.4Zm15.3-3.4h0a1.8,1.8,0,0,0-1.9-1.7h-2v3.5h2.1A1.8,1.8,0,0,0,98.6,67.3Z"/><polygon class="cls-5" points="114.3 76.3 114.3 76.3 114.2 76.3 114.2 76.3 114.2 76.2 114.2 76.2 114.3 76.2 114.3 76.2 114.2 76.2 114.2 76.2 114.2 76.3 114.2 76.3 114.3 76.3"/><path class="cls-5" d="M114.3,76.3h0Zm0,0Z"/><polygon class="cls-5" points="114.3 76.3 114.3 76.3 114.3 76.2 114.3 76.2 114.3 76.2 114.3 76.2 114.3 76.2 114.3 76.2 114.3 76.2 114.3 76.2 114.3 76.3 114.3 76.3 114.3 76.3"/><path class="cls-5" d="M114.3,76.3h0Zm0,0Z"/><polygon class="cls-5" points="114.3 76.2 114.3 76.2 114.3 76.2 114.3 76.2 114.3 76.3 114.3 76.3 114.3 76.2 114.3 76.2 114.3 76.2"/><polygon class="cls-5" points="114.3 76.3 114.3 76.3 114.3 76.2 114.3 76.2 114.3 76.2 114.3 76.2 114.3 76.2 114.3 76.2 114.3 76.2 114.3 76.2 114.3 76.3 114.3 76.3 114.3 76.3"/><path class="cls-5" d="M114.3,76.3h0Zm0,0Z"/><path class="cls-5" d="M114.4,76.3h0Zm0,0Zm0,0Z"/><polygon class="cls-5" points="114.4 76.2 114.4 76.2 114.4 76.2 114.4 76.2 114.4 76.2 114.4 76.2 114.4 76.2 114.4 76.2 114.4 76.3 114.4 76.3 114.4 76.2 114.4 76.2"/><polygon class="cls-5" points="114.4 76.3 114.4 76.3 114.4 76.2 114.4 76.2 114.4 76.3 114.4 76.3 114.4 76.3"/><path class="cls-5" d="M114.4,76.3h0Zm0,0Z"/><path class="cls-5" d="M114.4,76.3h0Z"/><path class="cls-5" d="M114.5,76.3h0Zm0,0Z"/><polygon class="cls-5" points="114.5 76.3 114.5 76.2 114.5 76.2 114.5 76.2 114.5 76.2 114.5 76.2 114.5 76.3 114.5 76.3 114.5 76.2 114.5 76.2 114.5 76.3 114.5 76.3 114.5 76.2 114.5 76.2 114.5 76.3 114.5 76.3"/><path class="cls-5" d="M114.5,76.3h0Zm0,0Z"/><path class="cls-5" d="M114.5,76.3h0Z"/><polygon class="cls-5" points="114.6 76.2 114.5 76.2 114.5 76.2 114.6 76.2 114.6 76.3 114.6 76.3 114.6 76.2 114.6 76.2 114.6 76.2"/><polygon class="cls-5" points="114.6 76.3 114.6 76.3 114.6 76.2 114.6 76.2 114.6 76.2 114.6 76.2 114.6 76.2 114.6 76.2 114.6 76.2 114.6 76.2 114.6 76.3 114.6 76.3 114.6 76.3"/><path class="cls-5" d="M114.6,76.3h0Zm0,0Z"/><path class="cls-6" d="M38.9,56.5l.5-.8a1.3,1.3,0,0,0,1,.5,1,1,0,0,0,1-1.1V51.2h1v4a1.8,1.8,0,0,1-2,1.9,2.1,2.1,0,0,1-1.5-.6"/><polygon class="cls-6" points="43.9 57 43.9 51.2 47.8 51.2 47.8 52.1 44.9 52.1 44.9 53.6 47.8 53.6 47.8 54.5 44.9 54.5 44.9 56.1 47.8 56.1 47.8 57 43.9 57"/><polygon class="cls-6" points="50.5 57 50.5 52.1 48.7 52.1 48.7 51.2 53.3 51.2 53.3 52.1 51.5 52.1 51.5 57 50.5 57"/><polygon class="cls-6" points="54.1 57 54.1 56.2 57.1 52.1 54.1 52.1 54.1 51.2 58.4 51.2 58.4 52.1 55.4 56.1 58.4 56.1 58.4 57 54.1 57"/><polygon class="cls-6" points="61 57 61 52.1 59.3 52.1 59.3 51.2 63.8 51.2 63.8 52.1 62.1 52.1 62.1 57 61 57"/><path class="cls-6" d="M67.3,57V51.2h2.8a1.5,1.5,0,0,1,1.7,1.5,1.3,1.3,0,0,1-1,1.3A1.4,1.4,0,0,1,72,55.5,1.5,1.5,0,0,1,70.3,57Zm3.5-4.2a.7.7,0,0,0-.8-.7H68.4v1.5H70a.7.7,0,0,0,.8-.7m.1,2.4a.8.8,0,0,0-.9-.8H68.4v1.6H70a.8.8,0,0,0,.9-.8"/><polygon class="cls-6" points="73.2 57 73.2 51.2 77.2 51.2 77.2 52.1 74.2 52.1 74.2 53.6 77.1 53.6 77.1 54.5 74.2 54.5 74.2 56.1 77.2 56.1 77.2 57 73.2 57"/><rect class="cls-6" x="78.4" y="51.2" width="1" height="5.79"/></svg>