<svg xmlns="http://www.w3.org/2000/svg" width="138.94" height="93" viewBox="0 0 138.94 93">
  <metadata><?xpacket begin="﻿" id="W5M0MpCehiHzreSzNTczkc9d"?>
<x:xmpmeta xmlns:x="adobe:ns:meta/" x:xmptk="Adobe XMP Core 5.6-c138 79.159824, 2016/09/14-01:09:01        ">
   <rdf:RDF xmlns:rdf="http://www.w3.org/1999/02/22-rdf-syntax-ns#">
      <rdf:Description rdf:about=""/>
   </rdf:RDF>
</x:xmpmeta>
                                                                                                    
                                                                                                    
                                                                                                    
                                                                                                    
                                                                                                    
                                                                                                    
                                                                                                    
                                                                                                    
                                                                                                    
                                                                                                    
                                                                                                    
                                                                                                    
                                                                                                    
                                                                                                    
                                                                                                    
                                                                                                    
                                                                                                    
                                                                                                    
                                                                                                    
                                                                                                    
                           
<?xpacket end="w"?></metadata>
<defs>
    <style>
      .cls-1 {
        fill: #f7d117;
        fill-rule: evenodd;
      }
    </style>
  </defs>
  <path id="Form_1" data-name="Form 1" class="cls-1" d="M1155.44,609.5a5.1,5.1,0,0,0-7.15-7.237l-15.97,15.756,7.16,7.247Zm22.97,16.534a4.915,4.915,0,0,0-6.93-.31l-15.96,15.766,7.16,7.237,15.96-15.766A4.921,4.921,0,0,0,1178.41,626.031Zm-59.52-11.312a5.951,5.951,0,1,0-8.44,8.337l1.38,1.395c-1.87,1.643-14.78,13.044-19.17,18.538-5.72,6.223-2.81,11.858-2.81,11.858s1.08,4.928,8.26,14.676l-7.83,9.321,1.22,4.38,0.05,0.046c-1.05,1.149-2.99,2.907-5.15,3.015-1.98.072-4.17-1.166-6.45-2.511-0.73-.423-1.44-0.841-2.15-1.224a43.213,43.213,0,0,0-10.86-4.249c-8.06-1.852-15.82-.546-21.27,3.57A25.081,25.081,0,0,0,1041,686.4l6.09,4.7a17.178,17.178,0,0,1,3.21-3.084c3.59-2.707,9.16-3.534,14.92-2.216a35.579,35.579,0,0,1,8.93,3.523c0.63,0.339,1.26.71,1.9,1.086,2.72,1.6,6.08,3.575,10.12,3.575,0.2,0,.41,0,0.62-0.017,3.6-.178,7.1-1.993,10.16-5.227l0.03,0.026,4.36,1.269,9.42-7.721c9.66,7.3,14.58,8.435,14.58,8.435s5.6,2.978,11.89-2.671c5.55-4.322,17.1-17.091,18.77-18.943l1.38,1.395a5.95,5.95,0,1,0,8.44-8.337ZM1130,677.426a2.956,2.956,0,0,1-4.18-.024l-22.62-22.878a2.953,2.953,0,0,1,4.2-4.151l22.62,22.88A2.946,2.946,0,0,1,1130,677.426Zm11.72-11.578a2.955,2.955,0,0,1-4.18-.025l-22.62-22.88a2.952,2.952,0,0,1,4.2-4.149l22.62,22.878A2.95,2.95,0,0,1,1141.72,665.848Z" transform="translate(-1041 -600.969)"/>
</svg>
